<svg width="40" height="40" viewBox="0 0 40 40" fill="none" xmlns="http://www.w3.org/2000/svg">
<path fill-rule="evenodd" clip-rule="evenodd" d="M20 18.6C18.2327 18.6 16.8 20.0327 16.8 21.8C16.8 23.5673 18.2327 25 20 25C21.7673 25 23.2 23.5673 23.2 21.8C23.2 20.0327 21.7673 18.6 20 18.6ZM29.6 18.6C29.6 16.8327 31.0327 15.4 32.8 15.4C34.5673 15.4 36 16.8327 36 18.6C36 20.3673 34.5673 21.8 32.8 21.8C31.0327 21.8 29.6 20.3673 29.6 18.6ZM4 18.6C4 16.8327 5.43269 15.4 7.2 15.4C8.96731 15.4 10.4 16.8327 10.4 18.6C10.4 20.3673 8.96731 21.8 7.2 21.8C5.43269 21.8 4 20.3673 4 18.6Z" fill="black"/>
</svg>
